HIERARCHY
ROOT Hips
{
	OFFSET	0	0	0
	CHANNELS 6  Xposition Yposition Zposition Xrotation Yrotation Zrotation
	JOINT Spine
	{
		OFFSET	0	6.81137	1.36784
		CHANNELS 3  Xrotation Yrotation Zrotation
		JOINT Spine1
		{
			OFFSET	0	11.6648	-2.083
			CHANNELS 3  Xrotation Yrotation Zrotation
			JOINT Spine2
			{
				OFFSET	0	8.84235	0.947767
				CHANNELS 3  Xrotation Yrotation Zrotation
				JOINT Spine3
				{
					OFFSET	0	10.5817	3.14534
					CHANNELS 3  Xrotation Yrotation Zrotation
					JOINT Spine4
					{
						OFFSET	0	15.6642	-1.60391
						CHANNELS 3  Xrotation Yrotation Zrotation
						JOINT Neck
						{
							OFFSET	0	7.47798	-5.23875
							CHANNELS 3  Xrotation Yrotation Zrotation
							JOINT Head
							{
								OFFSET	0	8.97775	-2.68707
								CHANNELS 3  Xrotation Yrotation Zrotation
								End Site
								{
									OFFSET	0	18.7262	-0.906107
								}
							}
						}
					}
					JOINT LeftShoulder
					{
						OFFSET	-4.49929	19.0387	-8.97775
						CHANNELS 3  Xrotation Yrotation Zrotation
						JOINT LeftArm
						{
							OFFSET	-9.81417	-2.68707	3.44739
							CHANNELS 3  Xrotation Yrotation Zrotation
							JOINT LeftForeArm
							{
								OFFSET	-33.0157	-1.50689	2.35663
								CHANNELS 3  Xrotation Yrotation Zrotation
								JOINT LeftHand
								{
									OFFSET	-25.9733	-1.7949	1.85395
									CHANNELS 3  Xrotation Yrotation Zrotation
									End Site
									{
										OFFSET	-9.47896	-0.655051	0.676554
									}
								}
							}
						}
					}
					JOINT RightShoulder
					{
						OFFSET	4.49929	19.0387	-8.97775
						CHANNELS 3  Xrotation Yrotation Zrotation
						JOINT RightArm
						{
							OFFSET	9.81417	-2.68707	3.44739
							CHANNELS 3  Xrotation Yrotation Zrotation
							JOINT RightForeArm
							{
								OFFSET	33.0157	-1.50689	2.35663
								CHANNELS 3  Xrotation Yrotation Zrotation
								JOINT RightHand
								{
									OFFSET	25.9733	-1.7949	1.85395
									CHANNELS 3  Xrotation Yrotation Zrotation
									End Site
									{
										OFFSET	9.47896	-0.655051	0.676554
									}
								}
							}
						}
					}
				}
			}
		}
	}
	JOINT LeftUpLeg
	{
		OFFSET	-9.2746	-3.40568	-0.68392
		CHANNELS 3  Xrotation Yrotation Zrotation
		JOINT LeftLeg
		{
			OFFSET	-2.10167	-41.1814	-0.643755
			CHANNELS 3  Xrotation Yrotation Zrotation
			JOINT LeftFoot
			{
				OFFSET	-2.05436	-37.8685	3.25669
				CHANNELS 3  Xrotation Yrotation Zrotation
				JOINT LeftToeBase
				{
					OFFSET	0	-4.68304	-12.4382
					CHANNELS 3  Xrotation Yrotation Zrotation
					End Site
					{
						OFFSET	0	-1.87322	-7.49286
					}
				}
			}
		}
	}
	JOINT RightUpLeg
	{
		OFFSET	9.2746	-3.40568	-0.68392
		CHANNELS 3  Xrotation Yrotation Zrotation
		JOINT RightLeg
		{
			OFFSET	2.10167	-41.1814	-0.643755
			CHANNELS 3  Xrotation Yrotation Zrotation
			JOINT RightFoot
			{
				OFFSET	2.05436	-37.8685	3.25669
				CHANNELS 3  Xrotation Yrotation Zrotation
				JOINT RightToeBase
				{
					OFFSET	0	-4.68304	-12.4382
					CHANNELS 3  Xrotation Yrotation Zrotation
					End Site
					{
						OFFSET	0	-1.87322	-7.49286
					}
				}
			}
		}
	}
}
MOTION
Frames: 10
Frame Time: 0.020409
 -112.595 90.66 -238.592 135.468 -64.8835 147.325 0.000315543 0.00664941 -2.71689 171.579 179.987 175.472 171.547 179.96 175.472 174.283 179.993 177.283 177.433 179.959 179.095 0.704154 -3.23563 -1.09482 0.206143 -4.3112 -0.647944 179.893 -151.625 179.768 148.85 -149.75 -138.411 142.362 -107.39 141.947 -0 1.97496 -10.5825 0.868673 -2.48365 -1.63606 143.466 156.687 136.03 118.065 117.556 -119.065 -0 14.4283 -11.6195 174.947 -165.201 173.231 163.428 -167.066 179.598 12.5117 0.0180525 11.4713 174.011 180 -180 136.298 -138.663 153.885 11.5792 13.5318 0.146046 165.602 -179.934 -177.985 6.26413 0 0
 -112.442 90.8577 -238.734 135.813 -65.3669 147.347 0.000242753 0.00520976 -2.66782 171.595 179.99 175.554 171.601 179.969 175.554 174.41 179.995 177.332 177.166 179.956 179.112 179.929 -176.562 178.812 179.972 -175.371 179.295 0.272973 -28.5857 0.592787 147.655 -151.406 -140.373 131.773 -104.554 131.042 -0 1.49496 -10.1068 0.793023 -4.42018 -1.46366 142.305 157.261 137.209 109.788 116.36 -109.979 -0 13.8259 -12.318 174.762 -164.346 173.667 164.151 -167.196 179.481 11.5904 0.07803 11.4431 174.031 180 -180 136.681 -138.602 154.371 11.472 13.2807 0.127705 165.723 -179.975 -178.327 6.26053 0 0
 -112.229 90.9777 -238.799 135.771 -65.9831 146.928 7.61543e-05 0.00167482 -2.60346 171.605 179.997 175.661 171.626 179.99 175.661 174.463 179.998 177.397 177.064 179.956 179.133 179.629 -176.227 178.618 179.881 -174.969 179.205 0.304311 -28.5353 0.660853 144.711 -152.804 -141.943 117.229 -102.333 115.925 -0 0.753465 -9.33679 0.644158 -6.0955 -1.16674 141.534 157.628 138.132 100.709 115.725 -100.028 -0 12.8826 -12.8777 174.383 -163.594 174.085 164.666 -167.405 179.518 11.2786 0.0318254 11.4145 174.049 180 -180 136.941 -138.56 154.461 11.4908 13.0729 0.0617688 165.235 179.994 -178.666 6.25451 0 0
 -112.176 91.1309 -238.87 136.776 -65.9735 147.738 0.000145108 0.00324461 -2.56071 171.611 179.994 175.732 171.624 179.981 175.732 174.443 179.997 177.439 177.12 179.957 179.148 179.79 -175.809 178.506 179.928 -174.388 179.129 0.407233 -28.7588 0.8843 141.39 -153.978 -143.153 96.6696 -100.94 94.7503 -0 0.374199 -8.33913 0.344511 -7.71951 -0.611986 140.729 157.794 139.257 91.0184 115.712 -89.2841 -0 11.8516 -13.6185 173.763 -162.758 174.054 164.991 -167.882 179.456 10.0551 0.00697436 11.2333 174.064 180 -180 137.59 -138.6 154.769 11.5271 12.9427 0.210517 164.637 179.971 -179.076 6.24578 0 0
 -111.828 91.1268 -238.904 137.582 -65.8022 148.68 180 -179.998 177.423 171.626 -179.997 175.705 171.617 -179.99 175.705 174.393 -179.998 177.423 177.265 179.959 179.142 0.198136 -4.69187 -1.67443 0.04859 -6.22784 -0.968159 0.636279 -28.842 1.38168 138.271 -155.342 -144.418 78.6062 -100.986 76.3099 -0 0.418729 -7.2968 0.1773 -8.94664 -0.310128 140.007 157.8 140.111 83.2765 116.187 -80.6156 -0 10.8012 -14.1147 174.081 -161.71 173.91 165.819 -168.444 179.534 9.74481 -0.0302386 10.9568 174.079 180 -180 137.908 -138.853 155.162 11.5378 12.8393 0.00110009 164.633 179.99 -179.672 6.2389 0 0
 -111.81 91.1423 -239.077 137.92 -65.628 148.963 180 -179.999 177.418 171.661 -179.998 175.697 171.57 -179.994 175.697 174.169 -179.999 177.418 177.855 179.968 179.14 1.86067 -5.25361 -1.78463 0.547458 -6.82768 -1.03081 1.14612 -28.6551 2.48941 136.497 -157.075 -145.89 63.4295 -102.144 60.9262 -0 0.684728 -6.4555 179.579 -169.703 -179.276 139.735 158.055 140.616 74.2399 117.174 -70.4008 -0 9.74667 -14.4597 174.519 -160.894 173.966 167.383 -168.906 179.766 8.8734 -0.0428412 10.8858 174.093 180 -180 138.215 -139.1 155.43 11.5993 12.8463 0.24406 164.573 179.991 179.882 6.23263 0 0
 -111.16 91.103 -238.998 137.635 -65.2041 148.696 0.000255515 0.00566328 -2.58331 171.706 179.989 175.694 171.518 179.966 175.694 173.902 179.994 177.417 178.563 179.978 179.139 3.85062 -5.95424 -2.06196 1.1473 -7.3572 -1.13593 1.57149 -28.2775 3.41447 135.516 -158.884 -146.897 54.1229 -103.365 51.4933 -0 1.07795 -6.15854 179.119 -168.564 -178.509 138.761 158.207 140.904 67.4799 118.333 -62.817 -0 8.90465 -14.8534 173.806 -160.606 174.104 167.735 -169.508 179.97 9.14519 -0.0333041 10.9244 174.106 180 -180 137.899 -139.246 156.022 11.6517 12.9239 0.25033 164.788 179.988 179.493 6.2566 0 0
 -110.936 91.0396 -239.351 137.779 -65.5275 148.42 0.000463175 0.0103781 -2.55541 171.751 179.979 175.741 171.516 179.938 175.741 173.787 179.99 177.445 178.912 179.984 179.148 4.82048 -6.35029 -2.04702 1.43791 -7.84839 -1.15758 1.58147 -28.4457 3.43601 134.624 -159.85 -147.329 46.3173 -104.757 43.6279 -0 1.53825 -6.00965 179.278 -167.725 -178.794 137.934 158.954 141.508 66.0061 118.788 -61.1152 -0 7.8235 -15.4058 172.987 -161.071 174.583 166.823 -170.865 179.944 7.53905 -0.0282829 11.0489 174.119 180 -180 137.027 -139.506 156.452 11.4774 12.9203 0.260712 165.904 -179.982 179.231 6.27165 0 0
 -110.43 91.0896 -239.247 136.876 -65.4936 147.633 0.000446065 0.00981482 -2.6022 171.752 179.98 175.663 171.49 179.941 175.663 173.707 179.99 177.398 179.101 179.986 179.133 5.37119 -6.56716 -1.99138 1.60252 -8.16373 -1.15716 1.52742 -28.3434 3.31859 132.895 -160.06 -147.259 39.4666 -106.302 36.5419 -0 1.94106 -5.64993 179.502 -167.2 -179.174 137.012 159.402 141.776 65.5641 119.071 -60.6232 -0 6.76661 -16.0987 172.201 -161.341 174.907 166.077 -172.012 179.825 5.94726 -0.0613439 11.1496 174.135 180 -180 136.539 -139.8 156.767 11.6057 12.9015 -0.0413784 167.319 179.994 178.85 6.28344 0 0
 -109.599 91.0298 -239.075 135.552 -65.4459 146.512 180 -179.998 177.327 171.739 -179.997 175.545 171.448 -179.99 175.545 173.623 -179.998 177.327 179.276 179.989 179.109 5.89522 -6.57062 -1.73133 1.75804 -8.38688 -1.08645 1.58082 -28.526 3.43449 130.888 -159.612 -146.789 34.4695 -107.638 31.4037 -0 2.37926 -5.11616 179.81 -167.046 -179.685 136.046 159.605 141.894 65.8729 119.127 -60.9455 -0 5.88188 -16.7749 171.679 -161.38 175.08 165.297 -172.965 179.736 4.36475 -0.0787903 11.2384 174.149 180 -180 135.935 -140.06 156.963 11.3842 12.7667 -0.0123765 167.196 -179.972 178.499 6.29254 0 0
